<svg xmlns="http://www.w3.org/2000/svg" viewBox="0 0 50 50" focusable="false" class="chakra-icon css-1qub7gy" aria-hidden="true"><path d="M26.13 16.03H23.88V34.3H26.13V16.03Z" fill="currentColor"/><path d="M34.14 23.88H15.86V26.13H34.14V23.88Z" fill="currentColor"/><path d="M25 44.01C14.52 44.01 5.98999 35.48 5.98999 25C5.98999 14.52 14.52 5.98999 25 5.98999C35.48 5.98999 44.01 14.52 44.01 25C44.01 35.48 35.48 44.01 25 44.01ZM25 8.23999C15.76 8.23999 8.23999 15.76 8.23999 25C8.23999 34.24 15.76 41.76 25 41.76C34.24 41.76 41.76 34.24 41.76 25C41.76 15.76 34.24 8.23999 25 8.23999Z" fill="currentColor"/></svg>